<svg data-v-fde0c5aa="" xmlns="http://www.w3.org/2000/svg" viewBox="0 0 300 300" class="iconAbove"><!----><defs data-v-fde0c5aa=""><!----></defs><rect data-v-fde0c5aa="" fill="transparent" x="0" y="0" width="300px" height="300px" class="logo-background-square"></rect><defs data-v-fde0c5aa=""><!----></defs><g data-v-fde0c5aa="" id="9e7b1dba-fb9c-40c0-bb5e-067f07c18321" fill="#000000" transform="matrix(1.7929798624172992,0,0,1.7929798624172992,18.816633243781816,165.85855544740684)"><path d="M3.15 4.82L4.27 4.63L4.27 4.20L0.66 4.20L0.66 4.63L1.78 4.82L1.78 13.38L0.66 13.57L0.66 14L4.27 14L4.27 13.57L3.15 13.38ZM12.35 9.37C12.35 7.88 11.56 6.86 10.09 6.86C9.21 6.86 8.46 7.34 7.83 7.83L7.88 7L7.60 6.93L5.45 7.14L5.45 7.57L6.58 7.69L6.58 13.41L5.46 13.57L5.46 14L8.86 14L8.86 13.57L7.88 13.41L7.88 9.70C7.88 8.95 7.83 8.37 7.83 8.37C7.83 8.37 8.60 7.90 9.60 7.90C10.61 7.90 11.05 8.53 11.05 9.69L11.05 13.41L10.07 13.57L10.07 14L13.47 14L13.47 13.57L12.35 13.41ZM14.13 7.63L15.09 7.64C15.06 7.81 15.04 8.37 15.04 8.78L15.04 11.94C15.04 13.51 15.78 14.14 16.88 14.14C17.98 14.14 18.72 13.52 18.72 13.52L18.72 13.01C18.72 13.01 18.13 13.27 17.40 13.27C16.65 13.27 16.32 12.81 16.32 11.93L16.32 7.66L18.70 7.77L18.70 7L16.32 7L16.34 5.38L16.04 5.38L15.02 7L14.13 7.32ZM25.63 10.40C25.83 8.13 24.91 6.86 22.96 6.86C21.20 6.86 19.73 8.30 19.73 10.63C19.73 12.67 20.99 14.14 23.00 14.14C24.46 14.14 25.35 13.41 25.35 13.41L25.35 12.94C25.35 12.94 24.51 13.27 23.56 13.27C22.04 13.27 21.10 12.07 21.06 10.40ZM22.90 7.57C24.11 7.57 24.35 8.55 24.36 9.66L21.08 9.74C21.21 8.41 21.88 7.57 22.90 7.57ZM29.22 8.44C29.62 8.16 30.14 7.92 30.62 7.92C31.23 7.92 31.49 8.33 32.09 8.58L32.63 7.56C32.06 7.32 31.79 6.86 31.08 6.86C30.38 6.86 29.71 7.45 29.22 7.94L29.27 7L28.99 6.93L26.84 7.13L26.84 7.56L27.97 7.67L27.97 13.40L26.85 13.57L26.85 14L30.67 14L30.67 13.57L29.27 13.40L29.27 9.84C29.27 9.09 29.22 8.44 29.22 8.44ZM35.07 5.22C35.60 5.22 35.95 4.91 35.95 4.40C35.95 3.93 35.64 3.64 35.14 3.64C34.62 3.64 34.24 3.93 34.24 4.42C34.24 4.90 34.59 5.22 35.07 5.22ZM35.48 6.93L33.32 7.13L33.32 7.56L34.45 7.67L34.45 13.40L33.33 13.57L33.33 14L36.88 14L36.88 13.57L35.76 13.40L35.76 7ZM41.20 13.45C39.97 13.45 39.23 12.29 39.23 10.49C39.23 8.76 39.77 7.55 41.23 7.55C42.46 7.55 43.20 8.71 43.20 10.51C43.20 12.24 42.66 13.45 41.20 13.45ZM41.03 14.14C43.36 14.14 44.53 12.50 44.53 10.35C44.53 8.27 43.36 6.86 41.40 6.86C39.07 6.86 37.90 8.50 37.90 10.65C37.90 12.73 39.07 14.14 41.03 14.14ZM48.05 8.44C48.45 8.16 48.97 7.92 49.45 7.92C50.06 7.92 50.32 8.33 50.92 8.58L51.46 7.56C50.89 7.32 50.62 6.86 49.91 6.86C49.21 6.86 48.54 7.45 48.05 7.94L48.10 7L47.82 6.93L45.67 7.13L45.67 7.56L46.80 7.67L46.80 13.40L45.68 13.57L45.68 14L49.50 14L49.50 13.57L48.10 13.40L48.10 9.84C48.10 9.09 48.05 8.44 48.05 8.44ZM68.71 4.63L68.71 4.20L65.52 4.20L65.52 4.63L66.70 4.82C66.64 5.19 66.44 5.96 66.35 6.34L65.13 11.03C64.86 11.94 64.74 12.68 64.74 12.68L64.68 12.68C64.68 12.68 64.60 11.94 64.34 11.02L62.55 4.13L61.45 4.20L59.79 10.95C59.58 11.86 59.44 12.59 59.44 12.59L59.39 12.59C59.39 12.59 59.28 11.87 59.01 10.95L57.22 4.82L58.39 4.63L58.39 4.20L54.77 4.20L54.77 4.63L55.83 4.82L58.63 14.08L59.86 14L61.47 7.60C61.66 6.90 61.75 6.08 61.75 6.08L61.81 6.08C61.81 6.08 61.89 6.82 62.12 7.63L63.85 14.08L65.11 14L66.88 7.63C67.21 6.48 67.61 5.26 67.79 4.82ZM72.70 13.17C72.81 13.86 73.28 14.14 73.85 14.14C74.48 14.14 74.91 13.82 74.91 13.82L74.91 13.44L74.48 13.44C74.06 13.44 73.96 13.19 73.96 12.84L73.96 9.48C73.96 7.78 73.32 6.86 71.65 6.86C70.20 6.86 69.10 7.60 69.10 7.60L69.10 8.08C69.10 8.08 70.22 7.76 71.19 7.76C72.46 7.76 72.69 8.34 72.69 9.37L72.69 10.12C72.28 10.12 71.44 10.14 70.78 10.25C69.29 10.51 68.68 11.30 68.68 12.38C68.68 13.31 69.33 14.07 70.48 14.07C71.48 14.07 72.17 13.66 72.70 13.17ZM71.09 13.20C70.34 13.20 69.96 12.78 69.96 12.18C69.96 11.49 70.39 11.06 71.11 10.88C71.92 10.67 72.66 10.68 72.66 10.68L72.66 11.68C72.66 12.28 72.70 12.67 72.70 12.67C72.25 12.94 71.78 13.20 71.09 13.20ZM76.89 13.41L75.77 13.57L75.77 14L79.31 14L79.31 13.57L78.19 13.41L78.19 3.42L77.91 3.35L75.75 3.56L75.75 3.99L76.89 4.13ZM81.24 13.41L80.12 13.57L80.12 14L83.66 14L83.66 13.57L82.54 13.41L82.54 3.42L82.26 3.35L80.11 3.56L80.11 3.99L81.24 4.13ZM91.52 4.90C94.30 4.90 95.56 6.82 95.56 9.18C95.56 11.62 94.30 13.30 91.91 13.30L90.51 13.30L90.51 4.90ZM91.80 14C94.68 14 97.01 12.32 97.01 8.92C97.01 6.23 95.20 4.20 92.04 4.20L88.02 4.20L88.02 4.63L89.14 4.82L89.14 13.38L88.02 13.57L88.02 14ZM104.33 10.40C104.52 8.13 103.60 6.86 101.65 6.86C99.89 6.86 98.42 8.30 98.42 10.63C98.42 12.67 99.68 14.14 101.70 14.14C103.15 14.14 104.05 13.41 104.05 13.41L104.05 12.94C104.05 12.94 103.21 13.27 102.26 13.27C100.73 13.27 99.79 12.07 99.75 10.40ZM101.60 7.57C102.80 7.57 103.04 8.55 103.05 9.66L99.78 9.74C99.90 8.41 100.58 7.57 101.60 7.57ZM108.26 13.41C107.37 13.41 106.88 12.78 105.91 12.66L105.63 13.83C106.22 13.92 106.92 14.14 108.04 14.14C109.28 14.14 110.47 13.51 110.47 12.18C110.47 9.63 106.83 10.19 106.83 8.41C106.83 7.95 107.14 7.59 107.79 7.59C108.63 7.59 109.07 8.22 110.04 8.34L110.32 7.17C109.73 7.08 109.07 6.86 108.19 6.86C106.81 6.86 105.77 7.62 105.77 8.81C105.77 11.33 109.47 10.89 109.47 12.50C109.47 13.03 108.99 13.41 108.26 13.41ZM113.39 5.22C113.92 5.22 114.27 4.91 114.27 4.40C114.27 3.93 113.96 3.64 113.46 3.64C112.94 3.64 112.56 3.93 112.56 4.42C112.56 4.90 112.91 5.22 113.39 5.22ZM113.79 6.93L111.64 7.13L111.64 7.56L112.77 7.67L112.77 13.40L111.65 13.57L111.65 14L115.19 14L115.19 13.57L114.07 13.40L114.07 7ZM116.10 15.64C116.10 17.08 117.54 17.72 119.35 17.70C121.17 17.67 122.65 16.62 122.65 15.13C122.65 13.93 121.81 13.22 120.44 13.13L118.79 13.03C118.03 12.99 117.82 12.35 118.33 11.90C118.54 11.93 118.78 11.96 119.03 11.96C121.02 11.96 122.12 10.74 122.12 9.30C122.12 8.68 121.88 8.18 121.59 7.83L122.99 7.80L123.03 6.97L120.72 7.18C120.48 7.06 119.98 6.86 119.28 6.86C117.36 6.86 116.26 7.85 116.26 9.52C116.26 10.54 116.77 11.38 117.78 11.76C117.35 12.00 116.98 12.53 116.98 12.99C116.98 13.40 117.12 13.66 117.33 13.85C116.62 14.21 116.10 14.83 116.10 15.64ZM118.72 14.22L120.25 14.31C121.10 14.35 121.69 14.74 121.69 15.51C121.69 16.37 120.93 16.86 119.50 16.86C118.12 16.86 117.28 16.09 117.28 15.20C117.28 14.73 117.46 14.38 117.75 14.06C118.05 14.15 118.38 14.20 118.72 14.22ZM119.11 7.60C120.25 7.60 120.79 8.29 120.79 9.49C120.79 10.47 120.20 11.21 119.27 11.21C118.12 11.21 117.59 10.46 117.59 9.25C117.59 8.36 118.09 7.60 119.11 7.60ZM130.70 9.37C130.70 7.88 129.92 6.86 128.45 6.86C127.57 6.86 126.81 7.34 126.18 7.83L126.24 7L125.96 6.93L123.80 7.14L123.80 7.57L124.94 7.69L124.94 13.41L123.82 13.57L123.82 14L127.22 14L127.22 13.57L126.24 13.41L126.24 9.70C126.24 8.95 126.18 8.37 126.18 8.37C126.18 8.37 126.95 7.90 127.96 7.90C128.97 7.90 129.40 8.53 129.40 9.69L129.40 13.41L128.42 13.57L128.42 14L131.82 14L131.82 13.57L130.70 13.41ZM138.67 10.40C138.87 8.13 137.94 6.86 136.00 6.86C134.23 6.86 132.76 8.30 132.76 10.63C132.76 12.67 134.02 14.14 136.04 14.14C137.49 14.14 138.39 13.41 138.39 13.41L138.39 12.94C138.39 12.94 137.55 13.27 136.60 13.27C135.07 13.27 134.13 12.07 134.09 10.40ZM135.94 7.57C137.14 7.57 137.38 8.55 137.40 9.66L134.12 9.74C134.25 8.41 134.92 7.57 135.94 7.57ZM142.25 8.44C142.66 8.16 143.18 7.92 143.65 7.92C144.27 7.92 144.52 8.33 145.12 8.58L145.67 7.56C145.10 7.32 144.83 6.86 144.12 6.86C143.42 6.86 142.74 7.45 142.25 7.94L142.31 7L142.03 6.93L139.87 7.13L139.87 7.56L141.01 7.67L141.01 13.40L139.89 13.57L139.89 14L143.71 14L143.71 13.57L142.31 13.40L142.31 9.84C142.31 9.09 142.25 8.44 142.25 8.44Z"></path></g><defs data-v-fde0c5aa=""><linearGradient data-v-fde0c5aa="" gradientTransform="rotate(25)" id="b481429e-1b5d-4cf6-82a7-deeeb6ff8c85" x1="0%" y1="0%" x2="100%" y2="0%"><stop data-v-fde0c5aa="" offset="0%" stop-color="#22526E" stop-opacity="1"></stop><stop data-v-fde0c5aa="" offset="100%" stop-color="#BDB496" stop-opacity="1"></stop></linearGradient></defs><g data-v-fde0c5aa="" id="729f7fd7-f857-456c-9cad-405f0c02189a" stroke="none" fill="url(#b481429e-1b5d-4cf6-82a7-deeeb6ff8c85)" transform="matrix(1.608129726939114,0,0,1.608129726939114,124.26992436897417,102.40488655346127)"><path d="M9.382 8.675h13.943v13.943L32 31.293V0H.707zM22.618 23.325H8.675V9.382L0 .707V32h31.293z"></path></g><!----></svg>